<svg xmlns="http://www.w3.org/2000/svg" viewBox="0 0 100 100" width="100" height="100">
  <!-- Flecha de deshacer/devolver más grande y visible -->
  <!-- Cuerpo curvo de la flecha -->
  <path d="M75 60 C75 75 65 85 50 85 C32 85 18 73 18 55 C18 37 32 25 50 25 L50 15"
        fill="none"
        stroke="#1a1a1a"
        stroke-width="10"
        stroke-linecap="round"
        stroke-linejoin="round"/>
  <path d="M75 60 C75 75 65 85 50 85 C32 85 18 73 18 55 C18 37 32 25 50 25 L50 15"
        fill="none"
        stroke="white"
        stroke-width="5.5"
        stroke-linecap="round"
        stroke-linejoin="round"/>
  
  <!-- Cabeza de flecha grande apuntando a la izquierda -->
  <path d="M28 15 L50 30 L50 15 L28 15 Z"
        fill="white" stroke="#1a1a1a" stroke-width="8" stroke-linejoin="round"/>
  <path d="M30 17 L48 28 L48 17 Z"
        fill="white"/>
</svg>
